<svg height="500" width="500"
    xmlns="http://www.w3.org/2000/svg">
    <polygon points="130,0 370,00 500,130 500,370 370,500 130,500 0,370 0,130 " style="fill: darkred; stroke: #E84142; stroke-width: 1" />
    <polygon points="150,50 350,50 450,150 450,350 350,450 150,450 50,350 50,150 " style="fill: #E84142; stroke: #E84142; stroke-width: 1" />
    <polygon points="150,50 350,50 300,140 200,140" style="fill: #f15962; stroke: #E84142; stroke-width: 1" />
    <polygon points="350,50 450,150 360,200 300,140" style="fill: #f52930; stroke: #E84142; stroke-width: 1" />
    <polygon points="450,150 450,350 360,300 360,200" style="fill: #ad0007; stroke: #E84142; stroke-width: 1" />
    <polygon points="450,350 350,450 300,360 360,300" style="fill: #890007; stroke: #E84142; stroke-width: 1" />
    <polygon points="350,450 150,450 200,360 300,360" style="fill: #ad0007; stroke: #E84142; stroke-width: 1" />
    <polygon points="150,450 50,350 140,300 200,360" style="fill: #f52930; stroke: #E84142; stroke-width: 1" />
    <polygon points="50,350 50,150 140,200 140,300" style="fill: #f15962; stroke: #E84142; stroke-width: 1" />
    <polygon points="50,150 150,50 200,140 140,200" style="fill: #f2979e; stroke: #E84142; stroke-width: 1" />
    <path style="fill:#ddd" d="M171.8,130.3c4.4-7.6,11.5-7.6,15.9,0l27.4,48.1c4.4,7.6,0.8,13.8-8,13.8h-55.2c-8.7,0-12.3-6.2-8-13.8
		L171.8,130.3z M118.8,37.7c4.4-7.6,11.4-7.6,15.8,0l6.1,11L155.1,74c3.5,7.2,3.5,15.7,0,22.9l-48.3,83.7
		c-4.4,6.8-11.7,11.1-19.8,11.6H46.9c-8.8,0-12.4-6.1-8-13.8L118.8,37.7z" transform="translate(120,120)"/>
</svg>